<svg xmlns="http://www.w3.org/2000/svg" xmlns:xlink="http://www.w3.org/1999/xlink" xmlns:svgjs="http://svgjs.dev/svgjs" version="1.1" width="2000" height="621" viewBox="0 0 2000 621"><g transform="matrix(1,0,0,1,-1.2121212121212466,0.6283492668783879)"><svg xmlns="http://www.w3.org/2000/svg" xmlns:xlink="http://www.w3.org/1999/xlink" viewBox="0 0 396 123" data-background-color="#ffffff" preserveAspectRatio="xMidYMid meet" height="621" width="2000"><g id="tight-bounds" transform="matrix(1,0,0,1,0.2400000000000091,-0.12445565189378271)"><svg viewBox="0 0 395.52 123.24889933429671" height="123.24889933429671" width="395.52"><g><svg viewBox="0 0 630.1515602727538 196.36298092993184" height="123.24889933429671" width="395.52"><g transform="matrix(1,0,0,1,234.6315602727538,57.65579180984853)"><svg viewBox="0 0 395.52 81.05139731023478" height="81.05139731023478" width="395.52"><g id="textblocktransform"><svg viewBox="0 0 395.52 81.05139731023478" height="81.05139731023478" width="395.52" id="textblock"><g><svg viewBox="0 0 395.52 81.05139731023478" height="81.05139731023478" width="395.52"><g transform="matrix(1,0,0,1,0,0)"><svg width="395.52" viewBox="2.1 -34.55 219.34 44.949999999999996" height="81.05139731023478" data-palette-color="#551e19"><path d="M28.95-28.7L28.95-7.5Q28.95-3.45 27.6-1.73 26.25 0 23.45 0L23.45 0Q20.25 0 19.05-2L19.05-2Q15.8 0.35 11.2 0.35L11.2 0.35Q7.3 0.35 4.7-2.88 2.1-6.1 2.1-11.7L2.1-11.7Q2.1-17.4 4.65-20.78 7.2-24.15 11.2-24.15L11.2-24.15Q14.8-24.15 17.95-21.85L17.95-21.85 17.95-28.25Q17.95-31.3 19.45-32.77 20.95-34.25 23.45-34.25L23.45-34.25Q26.2-34.25 27.58-33.15 28.95-32.05 28.95-28.7L28.95-28.7ZM18.05-7.2L18.05-7.2 18-16.55Q17.15-17.95 15.8-17.95L15.8-17.95Q14.95-17.95 14.28-17 13.6-16.05 13.25-14.65 12.9-13.25 12.9-11.7L12.9-11.7Q12.9-9.4 13.65-7.6 14.4-5.8 15.75-5.8L15.75-5.8Q16-5.8 16.25-5.85 16.5-5.9 16.7-5.98 16.9-6.05 17.1-6.18 17.3-6.3 17.45-6.45 17.6-6.6 17.75-6.8 17.9-7 18.05-7.2ZM44.6-1.4L44.6 2.9Q44.6 6.95 43.25 8.68 41.9 10.4 39.1 10.4L39.1 10.4Q36.3 10.4 35 8.83 33.7 7.25 33.7 3.25L33.7 3.25 33.6-17.85Q33.6-20.95 35.1-22.4 36.6-23.85 39.1-23.85L39.1-23.85Q41.05-23.85 42.25-23.38 43.45-22.9 44.05-21.5L44.05-21.5Q47.5-24.2 51.45-24.2L51.45-24.2Q55.45-24.2 58-20.85 60.55-17.5 60.55-11.75L60.55-11.75Q60.55-6.15 57.95-2.93 55.35 0.3 51.4 0.3L51.4 0.3Q47.6 0.3 44.6-1.4L44.6-1.4ZM44.6-16.55L44.6-7.25Q45.45-5.85 46.85-5.85L46.85-5.85Q48.2-5.85 48.95-7.65 49.7-9.45 49.7-11.75L49.7-11.75Q49.7-14.2 48.9-16.1 48.1-18 46.8-18L46.8-18Q45.45-18 44.6-16.55L44.6-16.55ZM84.55-24.6L84.55-24.6Q84.55-26.7 82.92-27.48 81.3-28.25 77.5-28.25L77.5-28.25 77.5-20.6Q79.84-20.6 81.32-20.95 82.8-21.3 83.67-22.18 84.55-23.05 84.55-24.6ZM85.2-11.25L85.2-11.25Q85.2-12.9 84.34-13.8 83.5-14.7 81.9-15.08 80.3-15.45 77.5-15.45L77.5-15.45 77.5-6.8Q81.4-6.8 83.3-7.78 85.2-8.75 85.2-11.25ZM91.34-17.8L91.34-17.8Q96-15.05 96-10.45L96-10.45Q96-8.45 95.22-6.63 94.44-4.8 92.92-3.3 91.4-1.8 88.9-0.93 86.4-0.05 83.25-0.05L83.25-0.05 71.64-0.05Q68.59-0.05 67.27-1.6 65.95-3.15 65.95-7.15L65.95-7.15 65.95-28.3Q65.95-30 66.55-31.3 67.14-32.6 68.47-33.4 69.8-34.2 71.64-34.2L71.64-34.2 83.09-34.2Q88.09-34.15 91.42-31.48 94.75-28.8 94.75-24.6L94.75-24.6Q94.75-23.25 94.52-22.23 94.3-21.2 93.84-20.4 93.4-19.6 92.8-19 92.2-18.4 91.34-17.8ZM116.89-11.85L116.89-11.85Q116.89-14.45 116.24-16.43 115.59-18.4 114.34-18.4L114.34-18.4Q113.49-18.4 112.84-17.4 112.19-16.4 111.89-14.95 111.59-13.5 111.59-11.85L111.59-11.85Q111.59-9.3 112.29-7.38 112.99-5.45 114.29-5.45 115.59-5.45 116.24-7.35 116.89-9.25 116.89-11.85ZM114.29 0.35L114.29 0.35Q110.39 0.35 107.27-1.05 104.14-2.45 102.27-5.25 100.39-8.05 100.39-11.8L100.39-11.8Q100.39-17.5 104.29-20.85 108.19-24.2 114.29-24.2 120.39-24.2 124.24-20.85 128.09-17.5 128.09-11.8L128.09-11.8Q128.09-6.15 124.17-2.9 120.24 0.35 114.29 0.35ZM148.44-11.85L148.44-11.85Q148.44-14.45 147.79-16.43 147.14-18.4 145.89-18.4L145.89-18.4Q145.04-18.4 144.39-17.4 143.74-16.4 143.44-14.95 143.14-13.5 143.14-11.85L143.14-11.85Q143.14-9.3 143.84-7.38 144.54-5.45 145.84-5.45 147.14-5.45 147.79-7.35 148.44-9.25 148.44-11.85ZM145.84 0.35L145.84 0.35Q141.94 0.35 138.81-1.05 135.69-2.45 133.81-5.25 131.94-8.05 131.94-11.8L131.94-11.8Q131.94-17.5 135.84-20.85 139.74-24.2 145.84-24.2 151.94-24.2 155.79-20.85 159.64-17.5 159.64-11.8L159.64-11.8Q159.64-6.15 155.72-2.9 151.79 0.35 145.84 0.35ZM193.49-4.15L193.49-13.2Q193.49-16 191.24-16L191.24-16Q190.24-16 189.74-14.85 189.24-13.7 189.24-11.95L189.24-11.95Q189.24-9.3 189.16-7.55 189.09-5.8 188.84-4.4 188.59-3 188.24-2.2 187.89-1.4 187.29-0.88 186.69-0.35 185.94-0.18 185.19 0 184.04 0L184.04 0Q182.29 0 181.21-0.5 180.14-1 179.69-1.9 179.24-2.8 179.24-4.15L179.24-4.15 179.24-13.2Q179.24-16 176.99-16L176.99-16Q176.09-16 175.51-14.98 174.94-13.95 174.94-12.3L174.94-12.3 174.94-5.35Q174.94-2.35 173.69-1.18 172.44 0 169.29 0L169.29 0Q166.34 0 165.26-1.38 164.19-2.75 164.19-5.9L164.19-5.9 164.19-18.2Q164.19-20.75 165.56-22.3 166.94-23.85 169.24-23.85L169.24-23.85Q173.34-23.85 174.44-21.2L174.44-21.2Q176.34-22.6 178.16-23.15 179.99-23.7 182.44-23.7L182.44-23.7Q186.14-23.7 187.79-20.5L187.79-20.5Q188.04-20.7 188.29-20.9L188.29-20.9Q192.14-23.7 197.74-23.7L197.74-23.7Q201.29-23.7 202.84-21 204.39-18.3 204.39-11.95L204.39-11.95Q204.39-9.3 204.31-7.55 204.24-5.8 203.99-4.4 203.74-3 203.36-2.2 202.99-1.4 202.31-0.88 201.64-0.35 200.81-0.18 199.99 0 198.74 0L198.74 0Q196.84 0 195.66-0.5 194.49-1 193.99-1.9 193.49-2.8 193.49-4.15L193.49-4.15ZM209.94-3.45L209.94-3.45Q209.94-5.45 211.51-6.35 213.09-7.25 215.44-7.25L215.44-7.25Q221.39-7.25 221.39-3.45L221.39-3.45Q221.39-1.6 219.79-0.63 218.19 0.35 215.44 0.35L215.44 0.35Q212.84 0.35 211.39-0.73 209.94-1.8 209.94-3.45ZM221.44-30.1L221.44-30.1Q221.44-27.55 220.44-21.6 219.44-15.65 219.44-13.2L219.44-13.2Q219.44-11.15 218.49-10.2 217.54-9.25 215.39-9.25L215.39-9.25Q213.29-9.25 212.44-10.23 211.59-11.2 211.59-13.35L211.59-13.35Q211.59-15.75 210.59-21.45 209.59-27.15 209.59-29.55L209.59-29.55Q209.59-32.05 210.81-33.3 212.04-34.55 215.24-34.55L215.24-34.55Q218.59-34.55 220.01-33.5 221.44-32.45 221.44-30.1Z" opacity="1" transform="matrix(1,0,0,1,0,0)" fill="#000000" class="wordmark-text-0" data-fill-palette-color="primary" id="text-0"/></svg></g></svg></g></svg></g></svg></g><g><svg viewBox="0 0 196.36298092993184 196.36298092993184" height="196.36298092993184" width="196.36298092993184"><g><svg/></g><g id="icon-0"><svg viewBox="0 0 196.36298092993184 196.36298092993184" height="196.36298092993184" width="196.36298092993184"><g><path d="M0 98.181c0-54.224 43.957-98.181 98.181-98.181 54.224 0 98.181 43.957 98.182 98.181 0 54.224-43.957 98.181-98.182 98.182-54.224 0-98.181-43.957-98.181-98.182zM98.181 189.054c50.187 0 90.872-40.685 90.873-90.873 0-50.187-40.685-90.872-90.873-90.872-50.187 0-90.872 40.685-90.872 90.872 0 50.187 40.685 90.872 90.872 90.873z" data-fill-palette-color="accent" fill="#000000" stroke="transparent"/></g><g transform="matrix(1,0,0,1,41.42728725403499,42.69095872395475)"><svg viewBox="0 0 113.50840642186186 110.98106348202234" height="110.98106348202234" width="113.50840642186186"><g><svg xmlns="http://www.w3.org/2000/svg" xmlns:xlink="http://www.w3.org/1999/xlink" version="1.1" x="0" y="0" viewBox="1.6 2.6575453183640447 96.9 94.74245468163596" enable-background="new 0 0 100 100" xml:space="preserve" height="110.98106348202234" width="113.50840642186186" class="icon-cg-0" data-fill-palette-color="accent" id="cg-0"><path d="M81.7 14l-7 3.8c-0.9 0.5-2.1 0.2-2.6-0.8l0 0c-0.5-0.9-0.2-2.1 0.8-2.6l7-3.8c0.9-0.5 2.1-0.2 2.6 0.8l0 0C83 12.3 82.6 13.5 81.7 14zM71.1 12l5.2-6.2c0.7-0.8 0.6-1.9-0.2-2.6-0.8-0.8-2.1-0.7-2.8 0.2l-5.2 6.2c-0.7 0.8-0.6 1.9 0.2 2.6C69.1 13 70.4 12.9 71.1 12zM76.3 24.4l8-1c1.1-0.1 1.9-1.2 1.7-2.3-0.2-1-1.1-1.7-2.1-1.6l-8 1c-1.1 0.1-1.9 1.2-1.7 2.3C74.3 23.9 75.3 24.5 76.3 24.4zM8 37.7v47.6H7.6 1.6v4.6c0 4.1 3.4 7.5 7.5 7.5h7.2 67.5 7.2c4.1 0 7.5-3.4 7.5-7.5v-4.6h-6.1H92V37.7c0-3.8-3-6.8-6.8-6.8h-3.9-4.9l1.9 3.4c1 1.9 1.1 4 0.4 5.9h2.6 1.4v45.2H59.1v0.5c0 1.4-1.2 2.6-2.6 2.6h-13c-1.4 0-2.6-1.2-2.6-2.6v-0.5h-6.5c0.9-0.5 1.7-0.9 1.9-1l12.1-6.7c2-0.9 5.4-2.4 8.6-4.2 2.1-1 4.3-2.1 5.8-3.4 5.2-4.4 1.5-7.7 1.5-7.7 1.8-4.1-1.6-6.1-1.6-6.1 1.2-4.5-2.9-5.4-2.9-5.4s0.2-3.2-2.7-3.9c-2.5-0.6-5.9 1.5-7.9 3l-4.8-5.2 4.1-2.3-0.9-1.7c5.3-1.9 14.5-4.2 23.1-2 0.6 1 1.9 1.3 2.9 0.6 0.8-0.6 1-1.8 0.5-2.7l-5.7-10.3c1.8-2.1 2.2-5.1 0.8-7.7-1.4-2.6-4.2-3.8-6.9-3.4L56.7 4.9c-0.5-0.9-1.6-1.4-2.6-1C53 4.3 52.6 5.6 53 6.6 50.3 15 43.4 21.5 39 25l-0.9-1.7-11.1 6.1c-2.2 1.2-3 4-1.8 6.2l1 1.8-1.2 0.7c-0.7 0.4-1 1.3-0.6 2.1l2.8 5c0.4 0.7 1.3 1 2.1 0.6l1.2-0.7 0.8 1.5c1.2 2.2 4 3 6.2 1.8l1-0.6 3.9 4.2c-4.1 1.6-6 7.5-6 7.5-0.3 1.1-0.3 2.2-0.2 3 0 0.2 0.1 0.4 0.1 0.6 0 0.3-0.1 0.7-0.2 1.1-0.3 1.2-1.1 2.1-2.2 2.7l-16.5 9v-36h0.2 1.8c-0.1-0.8 0-1.6 0.2-2.5 0.1-0.5 0.4-1 0.6-1.4-0.5-1.7-0.6-3.6 0-5.4h-2.6-2.7C11 30.9 8 33.9 8 37.7z" fill="#000000" data-fill-palette-color="accent"/></svg></g></svg></g></svg></g></svg></g></svg></g><defs/></svg><rect width="395.52" height="123.24889933429671" fill="none" stroke="none" visibility="hidden"/></g></svg></g></svg>